Coordinates
version=1
nRows=16
nColumns=22
inDegrees=yes

Units are S.I. units (second, meters, Newtons, ...)
If the header above contains a line with 'inDegrees', this indicates whether rotational values are in degrees (yes) or radians (no).

endheader
time	pelvis_tilt	pelvis_list	pelvis_rotation	pelvis_tx	pelvis_ty	pelvis_tz	hip_flexion_r	hip_adduction_r	hip_rotation_r	knee_angle_r	ankle_angle_r	subtalar_angle_r	hip_flexion_l	hip_adduction_l	hip_rotation_l	knee_angle_l	ankle_angle_l	subtalar_angle_l	lumbar_extension	lumbar_bending	lumbar_rotation
      0.01000000	     -1.65818196	     -4.80158235	     -0.51724751	      1.04079799	      1.01425888	      0.11913513	      1.69433520	      3.82485539	     -1.73446990	    -11.50887694	      8.53279476	      0.55378438	     -0.97970197	     -6.46035842	    -10.88602555	     -9.23690085	     11.42181192	     -0.64126987	     -2.39172514	      1.61828932	     -1.56298266
      0.02000000	     -1.65175026	     -4.80288189	     -0.51257677	      1.04088860	      1.01425341	      0.11912608	      1.68653889	      3.82634680	     -1.73292279	    -11.51795024	      8.53197214	      0.55560916	     -0.98784974	     -6.46159756	    -10.88331913	     -9.24384839	     11.42266908	     -0.64011136	     -2.37791519	      1.61874762	     -1.56042160
      0.03000000	     -1.64445139	     -4.80476336	     -0.50726573	      1.04099445	      1.01424704	      0.11911884	      1.67738294	      3.82874870	     -1.73143300	    -11.52780705	      8.53226750	      0.55739310	     -0.99738278	     -6.46376114	    -10.88026683	     -9.25175008	     11.42434243	     -0.63911108	     -2.36282395	      1.61847862	     -1.55672536
      0.04000000	     -1.63662715	     -4.80707163	     -0.50132791	      1.04110939	      1.01424098	      0.11911403	      1.66719221	      3.83182273	     -1.73016569	    -11.53787013	      8.53371579	      0.55907969	     -1.00777726	     -6.46654266	    -10.87712678	     -9.26001240	     11.42691477	     -0.63826143	     -2.34698685	      1.61786390	     -1.55229147
      0.05000000	     -1.60542647	     -4.82807147	     -0.49255360	      1.04122594	      1.01425732	      0.11910513	      1.63061762	      3.85429586	     -1.73890547	    -11.54639434	      8.56740292	      0.57856141	     -1.04410233	     -6.48903817	    -10.85464960	     -9.26951020	     11.47006717	     -0.62805358	     -2.36199921	      1.63882368	     -1.52775410
      0.06000000	     -1.59887679	     -4.82900760	     -0.48665469	      1.04134658	      1.01425118	      0.11910732	      1.62078567	      3.85666374	     -1.73691660	    -11.55500160	      8.56661781	      0.57989777	     -1.05398455	     -6.49071878	    -10.85545687	     -9.27611042	     11.47068118	     -0.62750566	     -2.34462941	      1.63498088	     -1.52936909
      0.07000000	     -1.59303656	     -4.82999686	     -0.48082568	      1.04146557	      1.01424441	      0.11910627	      1.61104027	      3.85848372	     -1.73560887	    -11.56220025	      8.56705156	      0.58101499	     -1.06342664	     -6.49241459	    -10.85611409	     -9.28186473	     11.47216478	     -0.62703084	     -2.32908883	      1.63197240	     -1.53076461
      0.08000000	     -1.57206422	     -4.83417682	     -0.46490725	      1.04161486	      1.01425436	      0.11908296	      1.57181475	      3.86276126	     -1.74532795	    -11.54805552	      8.58994160	      0.59251839	     -1.09468611	     -6.49628066	    -10.86242052	     -9.27583119	     11.50014562	     -0.62009357	     -2.32876014	      1.63540760	     -1.55662652
      0.09000000	     -1.56748303	     -4.83491027	     -0.46240277	      1.04172237	      1.01424868	      0.11908879	      1.56413896	      3.86440584	     -1.74472760	    -11.55511047	      8.58918723	      0.59327512	     -1.10271127	     -6.49807564	    -10.86052249	     -9.28243717	     11.49974643	     -0.61958054	     -2.31624778	      1.63171381	     -1.55658191
      0.10000000	     -1.56386970	     -4.83564089	     -0.46030928	      1.04182777	      1.01424291	      0.11909361	      1.55647411	      3.86581703	     -1.74455365	    -11.56040645	      8.58931189	      0.59387321	     -1.11074207	     -6.49952443	    -10.85932534	     -9.28692695	     11.50011796	     -0.61910003	     -2.30428843	      1.62826033	     -1.55890474
      0.11000000	     -1.56082065	     -4.83625188	     -0.45919102	      1.04192852	      1.01423891	      0.11909951	      1.54890791	      3.86710938	     -1.74479898	    -11.56396371	      8.59017296	      0.59432514	     -1.11900298	     -6.50072653	    -10.85874854	     -9.28951907	     11.50108643	     -0.61864208	     -2.29218034	      1.62499284	     -1.56385397
      0.12000000	     -1.55395695	     -4.83537942	     -0.44648515	      1.04206141	      1.01423716	      0.11907237	      1.52349440	      3.86527785	     -1.75330953	    -11.54579746	      8.60378337	      0.59735748	     -1.14257868	     -6.49738501	    -10.85785133	     -9.26677501	     11.51173672	     -0.61330478	     -2.27898543	      1.62624100	     -1.60316515
      0.13000000	     -1.55148340	     -4.83645642	     -0.44942559	      1.04214342	      1.01423464	      0.11909116	      1.51769801	      3.86736497	     -1.75452109	    -11.54870722	      8.60389891	      0.59775651	     -1.14971214	     -6.49961799	    -10.85572990	     -9.27114313	     11.51159047	     -0.61283498	     -2.26955416	      1.62115721	     -1.60671450
      0.14000000	     -1.54930216	     -4.83718917	     -0.45125177	      1.04222257	      1.01422998	      0.11910146	      1.51140220	      3.86859045	     -1.75547274	    -11.55052138	      8.60461290	      0.59803159	     -1.15710310	     -6.50098086	    -10.85511270	     -9.27272327	     11.51213425	     -0.61231489	     -2.25867639	      1.61811213	     -1.61218550
      0.15000000	     -1.53948792	     -4.83852575	     -0.43894947	      1.04233622	      1.01423568	      0.11908111	      1.48093043	      3.86948462	     -1.76675703	    -11.52622792	      8.61556192	      0.60181665	     -1.18357494	     -6.49989515	    -10.84770088	     -9.24926674	     11.51764959	     -0.60115532	     -2.25058237	      1.61978300	     -1.64341834
      0.16000000	     -1.53780942	     -4.83952345	     -0.44488210	      1.04239164	      1.01423071	      0.11910187	      1.47741838	      3.87099419	     -1.76786608	    -11.52819568	      8.61533033	      0.60207221	     -1.18966818	     -6.50215415	    -10.84708941	     -9.25200396	     11.51786532	     -0.60081033	     -2.24265412	      1.61594548	     -1.64731189
